<svg width="137" height="137" viewBox="0 0 137 137" fill="none" xmlns="http://www.w3.org/2000/svg">
<g clip-path="url(#clip0_5082_23928)">
<path d="M49.4817 28.7029C49.4817 28.7029 51.1632 29.8288 52.8555 28.6324C52.8555 28.6324 52.2362 27.4624 51.7786 27.3467C51.7786 27.3467 50.1333 28.3012 48.2666 26.6902C48.2666 26.6902 48.9104 28.2522 49.4817 28.7029Z" fill="#B4BFCD"/>
<path d="M46.1638 23.5517C46.1638 23.5517 45.9119 26.5561 49.4817 28.7021C49.4817 28.7021 47.5562 26.0946 48.3529 24.3572C48.3529 24.3582 47.3318 23.4038 46.1638 23.5517Z" fill="#CBD5E1"/>
<path d="M42.7211 54.2072C42.7211 54.2072 44.4173 53.1029 43.9822 51.0774C43.9822 51.0774 42.6633 51.1881 42.3771 51.5625C42.3771 51.5625 42.6084 53.4498 40.3938 54.5345C40.3938 54.5345 42.0832 54.5551 42.7211 54.2072Z" fill="#B4BFCD"/>
<path d="M36.6812 55.2353C36.6812 55.2353 39.3446 56.6473 42.7213 54.2074C42.7213 54.2074 39.567 54.9541 38.2823 53.5391C38.2823 53.5391 37.0045 54.1035 36.6812 55.2353Z" fill="#CBD5E1"/>
<path d="M102.938 31.1147C102.938 31.1147 103.693 29.2372 102.173 27.8281C102.173 27.8281 101.156 28.6757 101.138 29.1461C101.138 29.1461 102.411 30.5591 101.219 32.7179C101.219 32.7179 102.615 31.7664 102.938 31.1147Z" fill="#B4BFCD"/>
<path d="M98.5822 35.4224C98.5822 35.4224 101.574 35.0501 102.939 31.1138C102.939 31.1138 100.784 33.5351 98.9203 33.1148C98.9193 33.1148 98.1961 34.3102 98.5822 35.4224Z" fill="#CBD5E1"/>
<path d="M93.9869 78.6708C93.9869 78.6708 95.9193 79.2723 97.2011 77.6436C97.2011 77.6436 96.2741 76.6982 95.8038 76.7176C95.8038 76.7176 94.4981 78.1005 92.2502 77.0872C92.2502 77.0872 93.3114 78.4021 93.9869 78.6708Z" fill="#B4BFCD"/>
<path d="M89.3415 74.6772C89.3415 74.6772 89.9543 77.629 93.9879 78.6717C93.9879 78.6717 91.4005 76.7195 91.669 74.8278C91.6689 74.8268 90.4189 74.2026 89.3415 74.6772Z" fill="#CBD5E1"/>
<path d="M34.2989 38.0259C34.2989 38.0259 35.1152 38.1837 36.3273 37.3037C36.3273 37.3037 36.4037 36.5394 36.2626 36.1709C36.1215 35.8025 35.8648 35.19 35.6561 35.2782C35.4464 35.3664 34.7585 35.7407 34.0813 35.8348C33.4052 35.9289 34.0421 36.4433 33.9559 37.0362C33.8697 37.63 33.9089 38.0298 34.2989 38.0259Z" fill="#F9FAFB"/>
<path d="M93.6495 47.7094C93.6495 47.7094 94.4657 47.8671 95.6779 46.9872C95.6779 46.9872 95.7543 46.2228 95.6132 45.8544C95.4721 45.486 95.2154 44.8735 95.0067 44.9617C94.797 45.0499 94.1091 45.4242 93.4319 45.5183C92.7558 45.6124 93.3927 46.1268 93.3065 46.7197C93.2203 47.3135 93.2595 47.7143 93.6495 47.7094Z" fill="#F9FAFB"/>
<path d="M26.0817 63.3223C26.0817 63.3223 26.7382 62.9255 27.0244 61.5742C27.0244 61.5742 26.604 61.0029 26.2796 60.8383C25.9553 60.6727 25.4006 60.412 25.3125 60.6021C25.2233 60.7922 24.9832 61.4742 24.5785 61.9573C24.1728 62.4404 24.9273 62.3983 25.235 62.8579C25.5427 63.3165 25.8171 63.5673 26.0817 63.3223Z" fill="#CBD5E1"/>
<path d="M33.9406 51.001C33.9406 51.001 34.1424 50.2611 33.4173 49.0842C33.4173 49.0842 32.7196 48.9608 32.3708 49.0647C32.0219 49.1685 31.4408 49.3625 31.5075 49.5615C31.5741 49.7604 31.871 50.4199 31.9102 51.049C31.9494 51.6781 32.4668 51.1274 33.0067 51.2479C33.5467 51.3684 33.918 51.3606 33.9406 51.001Z" fill="#F9FAFB"/>
<path d="M111.61 39.974C111.61 39.974 111.812 39.2341 111.087 38.0573C111.087 38.0573 110.389 37.9338 110.04 38.0377C109.692 38.1415 109.111 38.3356 109.177 38.5345C109.244 38.7334 109.541 39.3929 109.58 40.022C109.619 40.6511 110.136 40.1004 110.676 40.2209C111.215 40.3414 111.587 40.3336 111.61 39.974Z" fill="#F9FAFB"/>
<path d="M88.8331 87.3109C88.8331 87.3109 89.6493 87.4687 90.8615 86.5887C90.8615 86.5887 90.9379 85.8244 90.7968 85.456C90.6557 85.0875 90.399 84.4751 90.1903 84.5633C89.9806 84.6515 89.2926 85.0258 88.6155 85.1199C87.9394 85.2139 88.5763 85.7284 88.4901 86.3212C88.4039 86.9151 88.4431 87.3158 88.8331 87.3109Z" fill="#F9FAFB"/>
<path d="M106.794 79.5755C106.794 79.5755 106.996 78.8357 106.271 77.6588C106.271 77.6588 105.573 77.5354 105.224 77.6392C104.875 77.7431 104.294 77.9371 104.361 78.1361C104.427 78.335 104.724 78.9945 104.763 79.6236C104.803 80.2527 105.32 79.702 105.86 79.8225C106.399 79.943 106.77 79.9352 106.794 79.5755Z" fill="#F9FAFB"/>
<path d="M60.9036 58.997C60.9036 58.997 61.5866 55.0891 68.7252 54.5208C74.2225 54.0827 79.7963 57.2341 80.4577 62.0249C81.373 68.6501 81.5356 72.1925 80.7977 75.5301C80.7977 75.5301 65.6708 72.8647 60.9878 76.0788C60.9878 76.0788 62.5969 69.9318 60.7919 61.2586C60.6086 60.3797 60.6958 59.6947 60.9036 58.997Z" fill="#5417CF"/>
<path d="M53.8542 42.1974C55.3672 47.145 63.574 54.7079 66.5362 54.8294C67.1732 54.8559 61.0585 62.5227 60.9556 62.1974C60.4422 60.5649 59.9483 59.8515 58.8567 58.6619C55.2839 54.7677 50.4039 49.5448 49.5798 44.7422L53.8542 42.1974Z" fill="#5417CF"/>
<path d="M70.1414 54.5747C70.1414 54.5747 80.6617 50.4277 82.0659 39.5585C82.1512 38.897 82.7842 38.4502 83.4368 38.5903L85.4946 39.0342C85.8699 39.1156 86.1404 39.4419 86.1492 39.826C86.1953 41.8711 85.9179 48.4923 81.2173 56.9696C80.7352 57.8397 79.7729 59.1861 80.4432 62.0132L70.1414 54.5747Z" fill="#5417CF"/>
<path d="M60.9722 76.069C60.981 77.0215 65.4141 77.5114 70.9046 77.4282C76.395 77.3449 80.7909 76.4718 80.7821 75.5203C80.7733 74.5678 76.2206 72.9509 70.7301 73.0342C65.2397 73.1175 60.9634 75.1165 60.9722 76.069Z" fill="#5417CF"/>
<path d="M68.8213 53.5663L68.5826 52.0455L69.0418 51.1832L69.3328 48.0229L70.6655 51.4758V52.7689V53.2576C70.7615 53.6349 71.0104 53.6653 71.3622 53.9367C71.5053 54.0465 72.4087 54.704 71.6552 55.2469C70.7174 55.923 68.304 55.4497 67.377 54.6981C68.3416 54.2158 68.7664 54.1631 68.8213 53.5663Z" fill="#F1B491"/>
<path d="M71.2551 46.1759C71.2551 46.1759 71.611 46.8877 71.6141 47.8741C71.6172 48.8606 70.1648 46.7416 70.1648 46.7416L71.2551 46.1759Z" fill="#0F172A"/>
<path d="M71.787 48.122C71.1605 46.3466 69.4592 45.3273 67.9862 45.8467C66.5133 46.3662 65.8272 48.2269 66.4536 50.0023C67.08 51.7777 68.7814 52.797 70.2543 52.2776C71.7263 51.7581 72.4123 49.8974 71.787 48.122Z" fill="#F1B491"/>
<path d="M66.182 49.0621L67.4914 48.6404C67.7795 48.5478 68.015 48.3328 68.122 48.0489C68.3051 47.5614 68.589 47.2713 69.848 47.0543C71.4423 46.7786 72.2868 45.6153 72.2827 44.7512C72.2786 43.8697 71.3477 43.4686 70.639 44.0394C69.9292 44.6103 70.0619 43.5508 69.2761 43.6074C67.8072 43.7134 67.7723 44.8706 66.5966 45.0814C65.0536 45.3591 62.5552 47.1037 64.4283 49.526L66.182 49.0621Z" fill="#0F172A"/>
<path d="M64.4272 49.5261C64.4272 49.5261 65.7737 51.3261 67.116 51.1955C67.116 51.1955 65.7336 49.8995 67.7733 48.4995C67.7733 48.4985 65.6533 48.6096 64.4272 49.5261Z" fill="#0F172A"/>
<path d="M66.5092 50.2358C66.827 50.3551 67.1716 50.2213 67.2786 49.9364C67.3845 49.6525 67.2138 49.3254 66.8949 49.2061C66.5771 49.0868 66.2325 49.2205 66.1265 49.5054C66.0185 49.7893 66.1903 50.1164 66.5092 50.2358Z" fill="#F1B491"/>
<path d="M52.3442 44.6226C50.9145 45.726 49.8925 45.3262 49.5799 44.7421C49.2683 44.1591 49.9993 43.1586 51.2134 42.5089C52.4275 41.8592 53.5417 41.6133 53.8533 42.1973C54.1659 42.7804 53.4349 43.7808 52.3442 44.6226Z" fill="#5417CF"/>
<path d="M70.7645 111.304C70.7645 111.304 70.7263 112.774 71.7827 113.246C72.839 113.717 75.9453 114.258 74.7273 115.139C74.0286 115.645 70.888 115.126 69.9963 115.079C69.1046 115.031 68.2481 115.345 67.6151 114.76C66.9184 114.116 67.8081 111.146 67.8081 111.146C67.8081 111.146 68.5578 111.556 69.2506 111.576C70.2491 111.605 70.7645 111.304 70.7645 111.304Z" fill="#CBD5E1"/>
<path d="M76.2138 74.9109C79.5524 75.684 80.1541 76.0486 79.9444 78.0456C79.7288 80.0907 79.1575 84.5993 78.0423 89.3185C76.0512 97.7468 73.7778 106.225 72.6685 110.289C72.2716 111.742 70.8713 112.746 69.276 112.72L68.4186 112.706C66.694 112.678 65.3691 111.242 65.5818 109.63L69.2261 81.932L69.4897 76.0701L76.2138 74.9109Z" fill="#0F172A"/>
<path d="M57.6444 111.304C57.6444 111.304 57.6062 112.774 58.6625 113.246C59.7189 113.717 62.8252 114.258 61.6072 115.139C60.9085 115.645 57.7679 115.126 56.8762 115.079C55.9844 115.031 55.128 115.345 54.495 114.76C53.7983 114.116 54.688 111.146 54.688 111.146C54.688 111.146 55.4377 111.556 56.1305 111.576C57.129 111.605 57.6444 111.304 57.6444 111.304Z" fill="#CBD5E1"/>
<path d="M76.2137 74.9108L60.3391 110.403C59.757 111.862 58.2499 112.804 56.5929 112.741L55.8707 112.714C54.1656 112.65 52.9407 111.129 53.3356 109.568L62.345 76.069C62.5605 75.3174 68.9937 73.5262 76.2137 74.9108Z" fill="#0F172A"/>
<path d="M52.7026 42.3132C52.8016 41.6596 52.7065 40.322 52.7928 39.6655C52.83 39.3813 52.8908 38.4151 52.6144 38.3367C52.3743 38.2681 51.9647 39.0079 51.8119 39.3852C50.7663 37.2764 48.6085 34.956 50.4959 39.2784C50.4939 39.2794 50.4919 39.2803 50.49 39.2813C50.2989 38.9237 48.9888 36.2456 48.4733 36.7071C48.0961 37.0452 49.2406 39.2147 49.5493 39.8066C49.5444 39.8095 49.5395 39.8134 49.5336 39.8173C49.1691 39.2421 48.1646 37.444 47.7874 37.7487C47.2915 38.1505 48.6624 40.4259 48.6624 40.4259C48.6624 40.4259 47.5728 38.5092 47.2122 39.1559C47.0083 39.5204 47.6904 40.6326 48.1254 41.3195C48.2166 41.4636 48.2969 41.589 48.3557 41.6851C48.4047 41.7644 48.4567 41.8291 48.5106 41.884C49.3082 42.9854 50.0039 43.5626 50.0039 43.5626C50.0039 43.5626 50.7007 44.3837 51.7384 43.835C52.3998 43.4832 52.6595 42.5974 52.7026 42.3132Z" fill="#F1B491"/>
<path d="M82.8565 38.6795C82.6626 38.0475 82.5601 36.7105 82.3784 36.0737C82.2998 35.7981 82.0977 34.8513 82.3596 34.7332C82.587 34.63 83.1008 35.3017 83.3075 35.6524C84.0319 33.4129 85.8253 30.8006 84.5935 35.3534C84.5956 35.3541 84.5977 35.3548 84.5998 35.3554C84.7362 34.9736 85.6387 32.1321 86.2163 32.5129C86.6392 32.7918 85.8258 35.106 85.6074 35.7368C85.6127 35.739 85.6181 35.7421 85.6245 35.7451C85.9006 35.1226 86.6299 33.1964 87.0479 33.4424C87.5973 33.767 86.5756 36.2191 86.5756 36.2191C86.5756 36.2191 87.3718 34.1631 87.8236 34.7498C88.0787 35.0804 87.5675 36.2808 87.2381 37.0241C87.1691 37.18 87.108 37.3159 87.064 37.4195C87.0272 37.5052 86.9853 37.5768 86.9401 37.639C86.3129 38.8457 85.7095 39.5188 85.7095 39.5188C85.7095 39.5188 85.141 40.4334 84.0339 40.0431C83.3279 39.7923 82.9409 38.9542 82.8565 38.6795Z" fill="#F1B491"/>
<path d="M136.856 162.513L25.0741 163.092L-0.535156 163.223L10.823 140.507L22.5359 130.214L38.5084 125.245L45.9024 115.19H79.505L92.6696 126.161L112.365 132.55L123.872 143.347L124.146 143.751L136.509 162.002L136.856 162.513Z" fill="#94A3B8"/>
<path opacity="0.1" d="M136.509 162.002L127.954 161.093L107.84 147.843L82.6997 144.056L74.8908 133.231L73.7658 125.363L63.5572 122.785L59.6064 115.19H79.5052L92.6698 126.161L112.366 132.55L123.873 143.347L124.146 143.751L136.509 162.002Z" fill="#F1F5F9"/>
<path d="M46.3765 131.989L29.8122 141.69L25.0741 163.092L-0.535156 163.223L10.823 140.507L22.5359 130.214L38.5084 125.245L45.9024 115.19L46.3765 131.989Z" fill="#B4BFCD"/>
<path d="M130.507 59.5793C130.507 59.8565 130.454 60.1248 130.356 60.3785H121.767C121.761 60.3726 121.758 60.3667 121.752 60.3608C121.752 60.3667 121.749 60.3726 121.746 60.3785C121.746 60.3785 121.516 60.3785 121.099 60.3844C116.847 60.408 93.0791 60.5407 93.0791 60.3313C93.0791 57.913 94.9317 55.9547 97.2157 55.9547C97.7506 55.9547 98.2617 56.0609 98.7286 56.2555C99.1629 55.8839 99.7184 55.6657 100.318 55.6657C101.187 55.6657 101.958 56.1258 102.419 56.8306C102.425 56.8188 102.431 56.8041 102.437 56.7923C102.88 55.8515 103.743 55.0582 104.86 54.5391C105.755 54.1203 106.81 53.8785 107.944 53.8785C108.272 53.8785 108.594 53.8991 108.908 53.9375C110.11 51.5958 112.459 50.0033 115.16 50.0033C118.614 50.0033 121.498 52.6104 122.139 56.0668C122.526 55.8132 122.984 55.6657 123.475 55.6657C124.458 55.6657 125.312 56.2526 125.735 57.1167C126.16 56.9633 126.63 56.8778 127.127 56.8778C128.462 56.8778 129.615 57.4971 130.164 58.3937C130.383 58.7505 130.507 59.1546 130.507 59.5793Z" fill="#F1F5F9"/>
<path opacity="0.4" d="M130.164 58.3936C129.068 58.1016 127.895 58.1104 126.748 58.1252C124.19 58.1547 121.634 58.1842 119.075 58.2137C116.011 58.249 113.281 56.5002 110.149 56.7833C108.648 56.9219 107.12 57.5324 105.678 57.6179C104.535 57.6858 103.143 57.4823 102.437 56.7922C102.88 55.8514 103.743 55.058 104.86 54.539C105.755 54.1202 106.81 53.8784 107.944 53.8784C108.272 53.8784 108.594 53.899 108.908 53.9374C110.11 51.5957 112.459 50.0032 115.16 50.0032C118.614 50.0032 121.498 52.6102 122.139 56.0667C122.526 55.813 122.984 55.6656 123.475 55.6656C124.458 55.6656 125.312 56.2525 125.735 57.1166C126.16 56.9632 126.63 56.8777 127.127 56.8777C128.462 56.8777 129.615 57.497 130.164 58.3936Z" fill="white"/>
<path d="M46.2051 33.1125C46.2051 33.3897 46.1519 33.658 46.0544 33.9117H37.465C37.459 33.9058 37.4561 33.8999 37.4502 33.894C37.4502 33.8999 37.4472 33.9058 37.4443 33.9117C37.4443 33.9117 37.2138 33.9117 36.7972 33.9176C32.5453 33.9412 8.77734 34.0739 8.77734 33.8645C8.77734 31.4462 10.63 29.4879 12.914 29.4879C13.4488 29.4879 13.96 29.5941 14.4268 29.7887C14.8612 29.4171 15.4167 29.1989 16.0165 29.1989C16.8852 29.1989 17.6563 29.659 18.1173 30.3638C18.1232 30.352 18.1291 30.3373 18.135 30.3255C18.5782 29.3847 19.441 28.5914 20.5579 28.0723C21.4532 27.6535 22.508 27.4117 23.6427 27.4117C23.9706 27.4117 24.2927 27.4324 24.6059 27.4707C25.8085 25.129 28.1575 23.5365 30.8581 23.5365C34.3122 23.5365 37.1961 26.1436 37.8372 29.6C38.2243 29.3464 38.6823 29.1989 39.1728 29.1989C40.1567 29.1989 41.0107 29.7858 41.4332 30.6499C41.8587 30.4965 42.3285 30.411 42.8249 30.411C44.1604 30.411 45.3128 31.0303 45.8623 31.9269C46.081 32.2837 46.2051 32.6878 46.2051 33.1125Z" fill="#F1F5F9"/>
<path opacity="0.4" d="M45.8623 31.927C44.7661 31.635 43.5931 31.6439 42.4467 31.6586C39.8878 31.6881 37.332 31.7176 34.7732 31.7471C31.7091 31.7825 28.9789 30.0336 25.8469 30.3168C24.3459 30.4554 22.8183 31.0659 21.3764 31.1514C20.2329 31.2192 18.8412 31.0157 18.135 30.3256C18.5782 29.3848 19.441 28.5915 20.5579 28.0724C21.4532 27.6537 22.508 27.4118 23.6427 27.4118C23.9706 27.4118 24.2927 27.4325 24.6059 27.4708C25.8085 25.1292 28.1575 23.5366 30.8581 23.5366C34.3122 23.5366 37.1961 26.1437 37.8372 29.6001C38.2243 29.3465 38.6823 29.199 39.1728 29.199C40.1567 29.199 41.0106 29.7859 41.4332 30.65C41.8587 30.4967 42.3285 30.4111 42.8249 30.4111C44.1604 30.4111 45.3128 31.0305 45.8623 31.927Z" fill="white"/>
<path d="M56.9878 84.0856C56.9878 84.3628 56.9346 84.6312 56.8371 84.8848H48.2477C48.2418 84.8789 48.2388 84.873 48.2329 84.8671C48.2329 84.873 48.2299 84.8789 48.227 84.8848C48.227 84.8848 47.9965 84.8848 47.5799 84.8907C43.328 84.9143 19.5601 85.047 19.5601 84.8376C19.5601 82.4193 21.4127 80.4611 23.6967 80.4611C24.2315 80.4611 24.7427 80.5672 25.2095 80.7619C25.6439 80.3903 26.1994 80.172 26.7992 80.172C27.6679 80.172 28.4391 80.6321 28.9 81.337C28.9059 81.3252 28.9118 81.3104 28.9177 81.2986C29.3609 80.3578 30.2237 79.5645 31.3406 79.0455C32.2359 78.6267 33.2908 78.3849 34.4254 78.3849C34.7534 78.3849 35.0754 78.4055 35.3886 78.4438C36.5912 76.1022 38.9402 74.5096 41.6409 74.5096C45.095 74.5096 47.9788 77.1167 48.62 80.5731C49.007 80.3195 49.465 80.172 49.9555 80.172C50.9394 80.172 51.7934 80.7589 52.2159 81.623C52.6414 81.4697 53.1112 81.3842 53.6076 81.3842C54.9431 81.3842 56.0955 82.0035 56.6451 82.9C56.8637 83.2569 56.9878 83.6609 56.9878 84.0856Z" fill="#F1F5F9"/>
<path opacity="0.4" d="M56.6451 82.9C55.5488 82.6081 54.3758 82.6169 53.2294 82.6317C50.6706 82.6611 48.1147 82.6906 45.5559 82.7201C42.4918 82.7555 39.7616 81.0067 36.6296 81.2898C35.1286 81.4284 33.601 82.0389 32.1591 82.1244C31.0156 82.1922 29.6239 81.9887 28.9177 81.2986C29.3609 80.3578 30.2237 79.5645 31.3406 79.0455C32.2359 78.6267 33.2908 78.3849 34.4254 78.3849C34.7534 78.3849 35.0754 78.4055 35.3886 78.4438C36.5912 76.1022 38.9402 74.5096 41.6409 74.5096C45.095 74.5096 47.9788 77.1167 48.62 80.5731C49.007 80.3195 49.465 80.172 49.9555 80.172C50.9394 80.172 51.7934 80.7589 52.2159 81.623C52.6414 81.4697 53.1112 81.3842 53.6076 81.3842C54.9431 81.3842 56.0955 82.0035 56.6451 82.9Z" fill="white"/>
</g>
<defs>
<clipPath id="clip0_5082_23928">
<rect width="137" height="137" fill="white"/>
</clipPath>
</defs>
</svg>
